<?xml version="1.0" encoding="utf-8"?>
<!-- Generator: Adobe Illustrator 15.0.0, SVG Export Plug-In . SVG Version: 6.00 Build 0)  -->
<!DOCTYPE svg PUBLIC "-//W3C//DTD SVG 1.1//EN" "http://www.w3.org/Graphics/SVG/1.1/DTD/svg11.dtd">
<svg version="1.1" id="Ebene_1" xmlns="http://www.w3.org/2000/svg" xmlns:xlink="http://www.w3.org/1999/xlink" x="0px" y="0px"
	 width="750px" height="175px" viewBox="0 0 750 175" enable-background="new 0 0 750 175" xml:space="preserve">
<g>
	<path fill="#FFFFFF" d="M226.017,85.637c0,2.357-0.361,4.525-1.083,6.502c-0.723,1.975-1.725,3.689-3.008,5.141
		c-1.282,1.453-2.794,2.586-4.534,3.396c-1.74,0.809-3.619,1.215-5.64,1.215h-2.587c-2.625,0-4.715-0.543-6.271-1.625
		c-1.556-1.084-2.333-2.834-2.333-5.252V71.68c0.369-0.147,0.87-0.287,1.504-0.42c0.633-0.132,1.306-0.262,2.013-0.387
		s1.422-0.218,2.145-0.277c0.722-0.058,1.385-0.088,1.99-0.088h3.23c1.769,0,3.523,0.303,5.264,0.907
		c1.74,0.604,3.303,1.525,4.688,2.765c1.385,1.239,2.502,2.809,3.351,4.711C225.593,80.791,226.017,83.041,226.017,85.637
		 M219.67,86.498c0-1.725-0.225-3.258-0.674-4.6c-0.45-1.342-1.083-2.473-1.902-3.395c-0.818-0.921-1.792-1.615-2.918-2.079
		c-1.129-0.465-2.356-0.697-3.683-0.697h-1.372c-0.207,0-0.438,0.016-0.697,0.045c-0.258,0.03-0.505,0.074-0.74,0.133
		c-0.31,0.059-0.611,0.104-0.907,0.133v17.804c0,0.898,0.232,1.563,0.697,1.988c0.465,0.43,1.272,0.643,2.422,0.643h1.04
		c1.268,0,2.439-0.258,3.516-0.773c1.076-0.516,1.998-1.221,2.764-2.113c0.767-0.891,1.368-1.941,1.803-3.15
		S219.67,87.914,219.67,86.498"/>
	<path fill="#FFFFFF" d="M251.252,86.1c0,2.227-0.907,3.771-2.721,4.635c-1.813,0.861-4.726,1.293-8.736,1.293h-3.981
		c0.236,1.533,0.981,2.754,2.234,3.66c1.252,0.906,2.786,1.359,4.6,1.359c1.268,0,2.587-0.156,3.959-0.475
		c1.372-0.316,2.543-0.926,3.517-1.824h0.221v1.902c0,0.781-0.145,1.504-0.432,2.166c-0.288,0.664-0.778,1.246-1.471,1.748
		c-0.693,0.502-1.608,0.895-2.743,1.184c-1.135,0.287-2.528,0.43-4.18,0.43c-1.519,0-3-0.287-4.445-0.861
		c-1.446-0.576-2.729-1.402-3.848-2.477c-1.121-1.076-2.021-2.367-2.699-3.871s-1.017-3.191-1.017-5.064
		c0-2.035,0.295-3.875,0.885-5.518c0.589-1.645,1.411-3.042,2.466-4.192c1.053-1.149,2.314-2.03,3.782-2.642
		c1.467-0.612,3.078-0.918,4.833-0.918c1.268,0,2.488,0.217,3.659,0.652c1.173,0.435,2.212,1.058,3.119,1.868
		c0.907,0.811,1.632,1.807,2.178,2.985C250.979,83.322,251.252,84.641,251.252,86.1 M245.546,85.371c0-1.24-0.417-2.16-1.25-2.766
		c-0.833-0.604-1.957-0.907-3.372-0.907c-0.723,0-1.394,0.145-2.013,0.432c-0.62,0.287-1.158,0.664-1.615,1.127
		c-0.457,0.465-0.811,1.014-1.061,1.648c-0.251,0.633-0.392,1.299-0.421,1.99l-0.044,0.818h2.698c1.46,0,2.643-0.045,3.55-0.133
		s1.622-0.225,2.146-0.41c0.523-0.184,0.885-0.426,1.083-0.729C245.447,86.143,245.546,85.783,245.546,85.371"/>
	<path fill="#FFFFFF" d="M275.712,80.062c0,0.369-0.159,1.239-0.475,2.61c-0.317,1.371-0.852,3.082-1.603,5.131
		c-0.428,1.121-0.904,2.314-1.427,3.584c-0.524,1.268-1.088,2.521-1.692,3.76c-0.605,1.238-1.25,2.439-1.936,3.604
		c-0.685,1.164-1.36,2.213-2.023,3.141h-1.172c-0.9,0-1.637-0.18-2.212-0.541c-0.575-0.361-1.164-0.992-1.769-1.893
		c-0.811-1.266-1.663-2.83-2.554-4.688c-0.893-1.857-1.725-3.814-2.499-5.871c-0.774-2.057-1.431-4.109-1.968-6.16
		c-0.539-2.048-0.874-3.907-1.006-5.573h3.272c1.062,0,1.903,0.317,2.521,0.951c0.62,0.633,0.987,1.282,1.106,1.945
		c0.413,2.272,0.969,4.583,1.669,6.934s1.7,4.797,2.997,7.33c0.575-1.15,1.132-2.4,1.67-3.758c0.537-1.357,1.042-2.775,1.515-4.258
		c0.472-1.482,0.888-2.988,1.25-4.523c0.362-1.534,0.66-3.074,0.896-4.622h2.587c1.063,0,1.803,0.235,2.224,0.708
		C275.502,78.345,275.712,79.075,275.712,80.062"/>
	<path fill="#FFFFFF" d="M299.908,86.1c0,2.227-0.907,3.771-2.721,4.635c-1.814,0.861-4.726,1.293-8.736,1.293h-3.981
		c0.236,1.533,0.98,2.754,2.234,3.66c1.252,0.906,2.787,1.359,4.601,1.359c1.268,0,2.587-0.156,3.959-0.475
		c1.371-0.316,2.543-0.926,3.516-1.824h0.221v1.902c0,0.781-0.145,1.504-0.432,2.166c-0.287,0.664-0.777,1.246-1.471,1.748
		s-1.607,0.895-2.743,1.184c-1.135,0.287-2.528,0.43-4.179,0.43c-1.519,0-3-0.287-4.445-0.861c-1.446-0.576-2.729-1.402-3.848-2.477
		c-1.121-1.076-2.021-2.367-2.698-3.871c-0.678-1.504-1.017-3.191-1.017-5.064c0-2.035,0.294-3.875,0.884-5.518
		c0.59-1.645,1.412-3.042,2.466-4.192c1.054-1.149,2.315-2.03,3.782-2.642c1.467-0.612,3.078-0.918,4.833-0.918
		c1.268,0,2.488,0.217,3.659,0.652c1.173,0.435,2.212,1.058,3.119,1.868c0.907,0.811,1.633,1.807,2.179,2.985
		C299.635,83.322,299.908,84.641,299.908,86.1 M294.202,85.371c0-1.24-0.417-2.16-1.25-2.766c-0.834-0.604-1.957-0.907-3.372-0.907
		c-0.723,0-1.395,0.145-2.013,0.432c-0.62,0.287-1.158,0.664-1.616,1.127c-0.457,0.465-0.811,1.014-1.061,1.648
		c-0.251,0.633-0.392,1.299-0.421,1.99l-0.044,0.818h2.698c1.459,0,2.643-0.045,3.55-0.133s1.621-0.225,2.145-0.41
		c0.523-0.184,0.885-0.426,1.084-0.729C294.102,86.143,294.202,85.783,294.202,85.371"/>
	<path fill="#FFFFFF" d="M316.627,98.176c0,1.326-0.34,2.271-1.018,2.832c-0.678,0.559-1.695,0.84-3.052,0.84
		c-2.536,0-4.464-0.65-5.783-1.947c-1.32-1.297-1.98-3.186-1.98-5.662V69.005h1.725c1.548,0,2.661,0.394,3.339,1.182
		c0.678,0.79,1.018,1.758,1.018,2.908v20.569c0,1.238,0.324,2.082,0.972,2.533c0.649,0.449,1.696,0.674,3.142,0.674h1.637V98.176z"
		/>
	<path fill="#FFFFFF" d="M318.176,89.859c0-1.842,0.257-3.564,0.774-5.162c0.517-1.602,1.287-2.999,2.311-4.192
		c1.025-1.195,2.292-2.138,3.804-2.831c1.511-0.693,3.247-1.039,5.208-1.039c1.843,0,3.48,0.339,4.911,1.017
		c1.43,0.679,2.634,1.589,3.616,2.731c0.98,1.143,1.729,2.455,2.244,3.937c0.517,1.48,0.775,3.041,0.775,4.678
		c0,1.842-0.266,3.564-0.796,5.164c-0.531,1.6-1.301,2.992-2.312,4.18c-1.01,1.186-2.271,2.123-3.782,2.809
		c-1.512,0.686-3.248,1.027-5.208,1.027c-1.843,0-3.48-0.342-4.91-1.027c-1.43-0.686-2.635-1.592-3.616-2.721
		s-1.729-2.432-2.245-3.914S318.176,91.482,318.176,89.859 M335.515,89.859c0-2.447-0.469-4.359-1.405-5.74
		c-0.936-1.377-2.4-2.066-4.39-2.066c-1.754,0-3.068,0.648-3.938,1.947c-0.87,1.297-1.304,2.963-1.304,4.998
		c0,2.432,0.46,4.33,1.382,5.693c0.92,1.365,2.392,2.047,4.412,2.047c1.785,0,3.104-0.648,3.959-1.947
		C335.086,93.494,335.515,91.85,335.515,89.859"/>
	<path fill="#FFFFFF" d="M369.906,88.666c0,1.961-0.244,3.768-0.73,5.418c-0.486,1.652-1.19,3.078-2.111,4.279
		c-0.922,1.201-2.068,2.139-3.439,2.811c-1.371,0.67-2.949,1.004-4.733,1.004c-1.356,0-2.569-0.342-3.638-1.027
		c-1.069-0.686-1.906-1.551-2.51-2.6v18.666h-1.902c-0.546,0-1.076-0.098-1.593-0.289c-0.516-0.191-0.969-0.471-1.359-0.84
		c-0.392-0.369-0.708-0.807-0.951-1.316c-0.245-0.508-0.366-1.094-0.366-1.758V90.348c0-2.021,0.236-3.879,0.708-5.574
		c0.471-1.695,1.206-3.143,2.201-4.346c0.995-1.202,2.263-2.134,3.804-2.798c1.54-0.663,3.38-0.994,5.518-0.994
		c1.637,0,3.132,0.339,4.489,1.017c1.357,0.679,2.525,1.573,3.506,2.687c0.979,1.114,1.743,2.396,2.288,3.849
		C369.632,85.639,369.906,87.133,369.906,88.666 M363.646,90.258c0-2.904-0.476-5.006-1.426-6.303
		c-0.951-1.297-2.408-1.947-4.369-1.947c-1.695,0-2.985,0.656-3.87,1.971c-0.885,1.311-1.327,3.029-1.327,5.152
		c0,2.447,0.549,4.334,1.648,5.66c1.098,1.328,2.553,1.992,4.367,1.992c1.475,0,2.673-0.598,3.595-1.793
		C363.185,93.797,363.646,92.219,363.646,90.258"/>
	<path fill="#FFFFFF" d="M395.229,86.1c0,2.227-0.906,3.771-2.721,4.635c-1.813,0.861-4.725,1.293-8.734,1.293h-3.982
		c0.236,1.533,0.98,2.754,2.234,3.66s2.785,1.359,4.6,1.359c1.27,0,2.588-0.156,3.959-0.475c1.371-0.316,2.543-0.926,3.518-1.824
		h0.221v1.902c0,0.781-0.145,1.504-0.432,2.166c-0.287,0.664-0.777,1.246-1.471,1.748s-1.607,0.895-2.742,1.184
		c-1.135,0.287-2.529,0.43-4.18,0.43c-1.52,0-3.002-0.287-4.445-0.861c-1.445-0.576-2.729-1.402-3.848-2.477
		c-1.121-1.076-2.021-2.367-2.699-3.871s-1.018-3.191-1.018-5.064c0-2.035,0.295-3.875,0.885-5.518
		c0.59-1.645,1.41-3.042,2.467-4.192c1.053-1.149,2.313-2.03,3.781-2.642c1.467-0.612,3.078-0.918,4.832-0.918
		c1.268,0,2.488,0.217,3.66,0.652c1.172,0.435,2.211,1.058,3.119,1.868c0.906,0.811,1.633,1.807,2.178,2.985
		C394.955,83.322,395.229,84.641,395.229,86.1 M389.523,85.371c0-1.24-0.416-2.16-1.25-2.766c-0.834-0.604-1.957-0.907-3.373-0.907
		c-0.723,0-1.393,0.145-2.014,0.432c-0.617,0.287-1.156,0.664-1.613,1.127c-0.457,0.465-0.811,1.014-1.061,1.648
		c-0.252,0.633-0.393,1.299-0.422,1.99l-0.045,0.818h2.699c1.459,0,2.643-0.045,3.549-0.133c0.908-0.088,1.623-0.225,2.146-0.41
		c0.523-0.184,0.885-0.426,1.084-0.729C389.424,86.143,389.523,85.783,389.523,85.371"/>
	<path fill="#FFFFFF" d="M413.762,83.094c-0.457-0.178-0.967-0.34-1.527-0.488c-0.559-0.146-1.23-0.221-2.01-0.221
		c-1.357,0-2.398,0.398-3.121,1.193c-0.721,0.797-1.082,2.131-1.082,4.004v14.045h-1.682c-1.355,0-2.436-0.332-3.24-0.996
		c-0.803-0.664-1.205-1.629-1.205-2.896V86.498c0-1.209,0.168-2.396,0.498-3.561c0.332-1.165,0.859-2.182,1.58-3.051
		c0.723-0.87,1.66-1.578,2.811-2.123c1.15-0.547,2.527-0.818,4.135-0.818c0.93,0,1.719,0.121,2.367,0.364
		c0.648,0.244,1.168,0.553,1.559,0.93c0.391,0.375,0.678,0.803,0.863,1.282c0.184,0.479,0.275,0.947,0.275,1.404v2.168H413.762z"/>
	<path fill="#FFFFFF" d="M450.961,101.627c-0.605,0-1.223-0.074-1.859-0.223c-0.631-0.146-1.311-0.502-2.033-1.063
		c-0.723-0.559-1.492-1.385-2.311-2.477c-0.818-1.09-1.707-2.572-2.664-4.445l-5.662-10.992c-0.842-1.694-1.535-2.904-2.08-3.626
		v22.826h-2.453c-0.459,0-0.912-0.086-1.361-0.256s-0.848-0.426-1.195-0.773c-0.346-0.346-0.633-0.768-0.861-1.26
		c-0.229-0.494-0.344-1.09-0.344-1.781v-26.96h3.074c2.064,0,3.781,0.539,5.154,1.615c1.371,1.076,2.588,2.653,3.648,4.731
		l5.418,10.86c0.34,0.635,0.668,1.361,0.986,2.18c0.316,0.816,0.592,1.484,0.828,2V70.596h2.764c0.398,0,0.801,0.094,1.205,0.277
		c0.406,0.185,0.768,0.442,1.084,0.772c0.318,0.333,0.582,0.717,0.797,1.151c0.213,0.436,0.32,0.896,0.32,1.382v27.448H450.961z"/>
	<path fill="#FFFFFF" d="M479.889,86.1c0,2.227-0.906,3.771-2.719,4.635c-1.814,0.861-4.727,1.293-8.738,1.293h-3.98
		c0.236,1.533,0.982,2.754,2.234,3.66c1.254,0.906,2.787,1.359,4.6,1.359c1.27,0,2.588-0.156,3.959-0.475
		c1.373-0.316,2.543-0.926,3.518-1.824h0.221v1.902c0,0.781-0.143,1.504-0.432,2.166c-0.287,0.664-0.777,1.246-1.469,1.748
		c-0.693,0.502-1.609,0.895-2.744,1.184c-1.135,0.287-2.527,0.43-4.18,0.43c-1.518,0-3-0.287-4.445-0.861
		c-1.445-0.576-2.729-1.402-3.848-2.477c-1.121-1.076-2.021-2.367-2.699-3.871s-1.016-3.191-1.016-5.064
		c0-2.035,0.295-3.875,0.883-5.518c0.59-1.645,1.412-3.042,2.467-4.192c1.055-1.149,2.314-2.03,3.783-2.642
		c1.465-0.612,3.076-0.918,4.83-0.918c1.27,0,2.488,0.217,3.662,0.652c1.172,0.435,2.211,1.058,3.117,1.868s1.633,1.807,2.178,2.985
		C479.617,83.322,479.889,84.641,479.889,86.1 M474.184,85.371c0-1.24-0.418-2.16-1.25-2.766c-0.834-0.604-1.957-0.907-3.373-0.907
		c-0.721,0-1.393,0.145-2.012,0.432c-0.619,0.287-1.158,0.664-1.615,1.127c-0.457,0.465-0.811,1.014-1.061,1.648
		c-0.252,0.633-0.391,1.299-0.422,1.99l-0.043,0.818h2.699c1.459,0,2.641-0.045,3.549-0.133c0.906-0.088,1.621-0.225,2.145-0.41
		c0.523-0.184,0.885-0.426,1.084-0.729C474.084,86.143,474.184,85.783,474.184,85.371"/>
	<path fill="#FFFFFF" d="M484.777,78.161c0-0.604,0.033-1.124,0.1-1.56c0.066-0.435,0.166-0.833,0.299-1.194
		c0.133-0.36,0.313-0.699,0.541-1.018c0.229-0.316,0.506-0.675,0.83-1.072c0.428-0.486,0.887-0.888,1.383-1.205
		c0.492-0.317,0.982-0.475,1.469-0.475h1.418v5.528h8.469v2.499c0,0.635-0.295,1.275-0.885,1.924
		c-0.59,0.65-1.504,0.972-2.742,0.972h-4.842v9.555c0,1.594,0.33,2.725,0.994,3.395c0.664,0.672,1.615,1.008,2.852,1.008
		c1.992,0,3.451-0.287,4.381-0.863h0.242v2.166c0,1.27-0.447,2.266-1.338,2.986c-0.893,0.723-2.23,1.084-4.014,1.084
		c-3.111,0-5.416-0.793-6.912-2.377c-1.496-1.586-2.244-3.809-2.244-6.668V78.161z"/>
	<path fill="#FFFFFF" d="M535.953,79.665c0,0.236-0.059,0.663-0.176,1.283c-0.119,0.618-0.299,1.38-0.543,2.289
		c-0.242,0.906-0.537,1.928-0.883,3.063c-0.346,1.137-0.748,2.338-1.207,3.605c-0.455,1.297-0.932,2.539-1.426,3.727
		c-0.494,1.186-0.992,2.297-1.492,3.328c-0.502,1.031-0.984,1.969-1.449,2.809c-0.465,0.842-0.896,1.549-1.293,2.123h-0.996
		c-0.486,0-0.934-0.096-1.338-0.287c-0.406-0.191-0.789-0.445-1.15-0.764c-0.361-0.316-0.678-0.674-0.951-1.072
		c-0.271-0.398-0.512-0.773-0.719-1.127c-0.369-0.664-0.754-1.441-1.16-2.334c-0.406-0.891-0.789-1.82-1.15-2.787
		c-0.361-0.965-0.693-1.945-0.996-2.939c-0.303-0.996-0.549-1.965-0.74-2.91c-0.176,0.945-0.477,2.072-0.896,3.385
		s-0.904,2.646-1.447,4.002c-0.547,1.357-1.121,2.654-1.727,3.895c-0.604,1.238-1.18,2.217-1.725,2.939h-0.818
		c-0.441,0-0.885-0.096-1.326-0.287c-0.443-0.191-0.852-0.445-1.227-0.764c-0.377-0.316-0.717-0.674-1.02-1.072
		c-0.301-0.398-0.557-0.773-0.762-1.127c-1.783-3.141-3.26-6.477-4.424-10.008s-2.02-7.354-2.564-11.467h3.271
		c1.063,0,1.885,0.317,2.467,0.951c0.582,0.633,0.941,1.297,1.072,1.99c0.354,2.094,0.832,4.264,1.438,6.514
		c0.605,2.248,1.424,4.486,2.457,6.711c1.119-2.445,2.018-4.953,2.697-7.518c0.678-2.566,1.318-5.147,1.924-7.743h1.99
		c0.93,0,1.803,0.243,2.621,0.729s1.375,1.394,1.67,2.722c0.191,0.811,0.42,1.721,0.686,2.731s0.566,2.045,0.906,3.107
		s0.711,2.111,1.117,3.15c0.406,1.041,0.822,1.98,1.25,2.82c1.135-2.566,2.059-5.23,2.775-7.994
		c0.715-2.766,1.309-5.533,1.779-8.305h2.545c0.867,0,1.576,0.203,2.121,0.609C535.682,78.046,535.953,78.721,535.953,79.665"/>
	<path fill="#FFFFFF" d="M538.408,89.859c0-1.842,0.26-3.564,0.775-5.162c0.516-1.602,1.285-2.999,2.311-4.192
		c1.023-1.195,2.293-2.138,3.805-2.831c1.51-0.693,3.246-1.039,5.207-1.039c1.844,0,3.48,0.339,4.91,1.017
		c1.43,0.679,2.635,1.589,3.617,2.731c0.979,1.143,1.729,2.455,2.244,3.937c0.516,1.48,0.773,3.041,0.773,4.678
		c0,1.842-0.266,3.564-0.795,5.164c-0.531,1.6-1.303,2.992-2.311,4.18c-1.012,1.186-2.271,2.123-3.783,2.809
		s-3.248,1.027-5.209,1.027c-1.844,0-3.479-0.342-4.91-1.027c-1.43-0.686-2.635-1.592-3.615-2.721s-1.729-2.432-2.244-3.914
		S538.408,91.482,538.408,89.859 M555.748,89.859c0-2.447-0.467-4.359-1.404-5.74c-0.938-1.377-2.4-2.066-4.391-2.066
		c-1.754,0-3.066,0.648-3.936,1.947c-0.871,1.297-1.307,2.963-1.307,4.998c0,2.432,0.461,4.33,1.383,5.693
		c0.922,1.365,2.393,2.047,4.412,2.047c1.783,0,3.104-0.648,3.959-1.947C555.32,93.494,555.748,91.85,555.748,89.859"/>
	<path fill="#FFFFFF" d="M580.674,83.094c-0.459-0.178-0.969-0.34-1.527-0.488c-0.561-0.146-1.23-0.221-2.012-0.221
		c-1.357,0-2.398,0.398-3.119,1.193c-0.723,0.797-1.084,2.131-1.084,4.004v14.045h-1.682c-1.355,0-2.436-0.332-3.238-0.996
		c-0.805-0.664-1.207-1.629-1.207-2.896V86.498c0-1.209,0.168-2.396,0.498-3.561c0.332-1.165,0.859-2.182,1.582-3.051
		c0.721-0.87,1.658-1.578,2.809-2.123c1.15-0.547,2.527-0.818,4.137-0.818c0.928,0,1.717,0.121,2.365,0.364
		c0.648,0.244,1.168,0.553,1.559,0.93c0.391,0.375,0.68,0.803,0.863,1.282c0.184,0.479,0.277,0.947,0.277,1.404v2.168H580.674z"/>
	<path fill="#FFFFFF" d="M586.445,69.005c1.488,0,2.557,0.378,3.205,1.138c0.65,0.76,0.975,1.729,0.975,2.908v14.576
		c1.18-1.535,2.367-3.057,3.563-4.568c1.193-1.51,2.496-2.944,3.914-4.3c0.721-0.693,1.467-1.132,2.232-1.315
		c0.768-0.186,1.637-0.277,2.609-0.277h3.494v0.221c-0.428,0.368-1.072,1.007-1.934,1.914c-0.863,0.906-1.779,1.901-2.744,2.985
		c-0.965,1.084-1.924,2.186-2.875,3.307s-1.744,2.086-2.377,2.896c0.973,1.211,1.949,2.418,2.93,3.627
		c0.98,1.211,2.01,2.375,3.086,3.494c0.545,0.531,1.031,0.982,1.459,1.35c0.43,0.369,0.822,0.664,1.184,0.885
		s0.707,0.402,1.039,0.543c0.334,0.139,0.676,0.27,1.029,0.387c-0.324,0.973-0.775,1.713-1.35,2.223
		c-0.574,0.508-1.498,0.762-2.764,0.762c-0.693,0-1.4-0.15-2.123-0.453c-0.723-0.301-1.342-0.711-1.857-1.227
		c-1.578-1.621-3.053-3.311-4.424-5.064c-1.371-1.756-2.734-3.539-4.092-5.352v11.92l-1.945,0.045
		c-2.787,0.027-4.182-1.408-4.182-4.314V69.005H586.445z"/>
	<path fill="#FFFFFF" d="M642.82,72.543c0,0.368-0.096,0.763-0.289,1.183c-0.191,0.421-0.453,0.797-0.785,1.128
		s-0.727,0.612-1.184,0.841s-0.943,0.343-1.459,0.343h-5.707v25.589h-2.475c-1.092,0-1.99-0.348-2.699-1.041
		c-0.707-0.693-1.061-1.732-1.061-3.117V76.038h-8.936v-2.035c0-0.368,0.076-0.756,0.232-1.161c0.154-0.405,0.391-0.773,0.707-1.104
		c0.316-0.333,0.707-0.605,1.172-0.819s1.014-0.321,1.648-0.321h20.834V72.543z"/>
	<path fill="#FFFFFF" d="M644.92,89.859c0-1.842,0.26-3.564,0.775-5.162c0.516-1.602,1.285-2.999,2.311-4.192
		c1.023-1.195,2.291-2.138,3.803-2.831s3.248-1.039,5.209-1.039c1.844,0,3.48,0.339,4.91,1.017c1.43,0.679,2.635,1.589,3.615,2.731
		s1.729,2.455,2.246,3.937c0.516,1.48,0.775,3.041,0.775,4.678c0,1.842-0.268,3.564-0.797,5.164c-0.533,1.6-1.303,2.992-2.311,4.18
		c-1.012,1.186-2.271,2.123-3.783,2.809s-3.248,1.027-5.209,1.027c-1.844,0-3.479-0.342-4.91-1.027
		c-1.43-0.686-2.635-1.592-3.615-2.721s-1.729-2.432-2.244-3.914S644.92,91.482,644.92,89.859 M662.26,89.859
		c0-2.447-0.469-4.359-1.404-5.74c-0.938-1.377-2.4-2.066-4.391-2.066c-1.754,0-3.066,0.648-3.936,1.947
		c-0.871,1.297-1.307,2.963-1.307,4.998c0,2.432,0.461,4.33,1.383,5.693c0.92,1.365,2.393,2.047,4.412,2.047
		c1.783,0,3.104-0.648,3.959-1.947C661.832,93.494,662.26,91.85,662.26,89.859"/>
	<path fill="#FFFFFF" d="M675.486,69.005c1.488,0,2.557,0.378,3.205,1.138s0.973,1.729,0.973,2.908v14.576
		c1.18-1.535,2.367-3.057,3.561-4.568c1.195-1.51,2.5-2.944,3.916-4.3c0.723-0.693,1.467-1.132,2.234-1.315
		c0.766-0.186,1.635-0.277,2.607-0.277h3.496v0.221c-0.428,0.368-1.072,1.007-1.936,1.914c-0.861,0.906-1.777,1.901-2.742,2.985
		c-0.967,1.084-1.926,2.186-2.875,3.307c-0.951,1.121-1.744,2.086-2.379,2.896c0.975,1.211,1.951,2.418,2.932,3.627
		c0.98,1.211,2.008,2.375,3.086,3.494c0.543,0.531,1.031,0.982,1.459,1.35c0.428,0.369,0.822,0.664,1.184,0.885
		c0.359,0.221,0.707,0.402,1.039,0.543c0.33,0.139,0.674,0.27,1.027,0.387c-0.324,0.973-0.773,1.713-1.348,2.223
		c-0.576,0.508-1.498,0.762-2.766,0.762c-0.693,0-1.4-0.15-2.123-0.453c-0.721-0.301-1.342-0.711-1.857-1.227
		c-1.578-1.621-3.053-3.311-4.424-5.064c-1.371-1.756-2.734-3.539-4.092-5.352v11.92l-1.945,0.045
		c-2.787,0.027-4.18-1.408-4.18-4.314V69.005H675.486z"/>
	<path fill="#FFFFFF" d="M719.807,86.1c0,2.227-0.908,3.771-2.721,4.635c-1.814,0.861-4.727,1.293-8.736,1.293h-3.98
		c0.234,1.533,0.98,2.754,2.232,3.66c1.254,0.906,2.787,1.359,4.6,1.359c1.27,0,2.588-0.156,3.961-0.475
		c1.371-0.316,2.543-0.926,3.516-1.824h0.221v1.902c0,0.781-0.145,1.504-0.432,2.166c-0.287,0.664-0.777,1.246-1.471,1.748
		c-0.691,0.502-1.607,0.895-2.74,1.184c-1.137,0.287-2.529,0.43-4.182,0.43c-1.518,0-3-0.287-4.445-0.861
		c-1.445-0.576-2.729-1.402-3.848-2.477c-1.121-1.076-2.02-2.367-2.699-3.871c-0.678-1.504-1.016-3.191-1.016-5.064
		c0-2.035,0.293-3.875,0.883-5.518c0.592-1.645,1.412-3.042,2.467-4.192c1.055-1.149,2.314-2.03,3.781-2.642
		c1.467-0.612,3.078-0.918,4.834-0.918c1.268,0,2.486,0.217,3.658,0.652c1.174,0.435,2.213,1.058,3.119,1.868
		c0.908,0.811,1.633,1.807,2.18,2.985C719.533,83.322,719.807,84.641,719.807,86.1 M714.1,85.371c0-1.24-0.418-2.16-1.248-2.766
		c-0.834-0.604-1.959-0.907-3.373-0.907c-0.725,0-1.395,0.145-2.014,0.432c-0.619,0.287-1.158,0.664-1.615,1.127
		c-0.457,0.465-0.811,1.014-1.061,1.648c-0.252,0.633-0.391,1.299-0.42,1.99l-0.045,0.818h2.699c1.459,0,2.641-0.045,3.549-0.133
		c0.906-0.088,1.621-0.225,2.145-0.41c0.523-0.184,0.885-0.426,1.084-0.729C714,86.143,714.1,85.783,714.1,85.371"/>
	<path fill="#FFFFFF" d="M744.355,101.627c-1.357,0-2.438-0.379-3.24-1.129c-0.805-0.752-1.207-1.703-1.207-2.854v-9.686
		c0-2.094-0.428-3.609-1.281-4.547c-0.855-0.934-2.072-1.404-3.65-1.404c-1.328,0-2.396,0.477-3.207,1.428s-1.217,2.303-1.217,4.059
		v14.133h-1.813c-1.297,0-2.334-0.379-3.107-1.129c-0.773-0.752-1.16-1.703-1.16-2.854V87.096c0-1.297,0.221-2.574,0.662-3.826
		c0.443-1.252,1.105-2.374,1.99-3.361c0.885-0.989,2.023-1.781,3.418-2.378c1.393-0.598,3.039-0.896,4.943-0.896
		c1.445,0,2.801,0.231,4.068,0.696s2.377,1.156,3.33,2.078c0.949,0.923,1.705,2.054,2.266,3.395c0.561,1.342,0.84,2.875,0.84,4.6
		v14.223H744.355z"/>
</g>
<g>
	<defs>
		<path id="SVGID_1_" d="M7.239,88.144c0,42.191,34.324,76.516,76.515,76.516c42.19,0,76.514-34.324,76.514-76.516
			c0-42.189-34.324-76.514-76.514-76.514C41.563,11.63,7.239,45.954,7.239,88.144"/>
	</defs>
	<clipPath id="SVGID_2_">
		<use xlink:href="#SVGID_1_"  overflow="visible"/>
	</clipPath>
	
		<rect x="6.962" y="11.354" transform="matrix(0.0036 -1 1 0.0036 -4.6952 171.5773)" clip-path="url(#SVGID_2_)" width="153.585" height="153.583"/>
</g>
<path fill="#3EC7F3" d="M77.71,164.443c-0.269-0.186-6.646-4.713-12.138-19.731c-1.877-5.131-3.279-10.641-4.167-16.378
	l-2.829-18.274c-0.295-1.909-0.5-3.379-0.664-4.769c-1.109-9.373-4.823-15.976-11.04-19.625c-9.05-5.312-22.993-4.144-41.442,3.474
	l-0.982-2.38c19.233-7.938,33.945-9.054,43.727-3.313c6.949,4.079,11.084,11.327,12.292,21.541c0.161,1.358,0.362,2.801,0.653,4.68
	l2.828,18.274c0.862,5.569,2.221,10.915,4.04,15.888c5.17,14.136,11.129,18.459,11.188,18.5L77.71,164.443z"/>
<path fill="#3EC7F3" d="M10.583,109.824l-1.095-2.329c9.166-4.312,15.386-10.132,17.987-16.839c1.952-5.032,1.199-8.861,1.19-8.899
	l2.517-0.533c0.039,0.179,0.92,4.482-1.243,10.19C27.983,96.581,23.035,103.968,10.583,109.824"/>
<path fill="#3EC7F3" d="M47.172,85.517c-1.286-7.07-4.573-12.433-9.77-15.939c-11.036-7.446-27.144-4.23-27.306-4.198l-0.52-2.52
	c0.701-0.144,17.34-3.462,29.264,4.584c5.793,3.909,9.447,9.835,10.861,17.613L47.172,85.517z"/>
<path fill="#3EC7F3" d="M81.624,100.66c-18.54-10.803-28.818-28.761-29.724-51.93c-0.68-17.396,4.057-31.362,4.259-31.948
	l2.432,0.838c-0.047,0.139-4.795,14.16-4.117,31.087c0.901,22.525,10.471,39.257,28.445,49.73L81.624,100.66z"/>
<path fill="#3EC7F3" d="M67.33,86.963l-1.984-1.639c14.408-17.44-2.001-67.214-2.169-67.715l2.439-0.816
	C66.32,18.893,82.636,68.434,67.33,86.963"/>
<path fill="#3EC7F3" d="M55.341,66.418C32.782,60.662,24.578,37.436,24.24,36.45l2.434-0.835c0.079,0.228,8.113,22.902,29.303,28.31
	L55.341,66.418z"/>
<path fill="#3EC7F3" d="M37.167,53.914l-2.118-1.461c10.867-15.75,8.633-29.79,8.61-29.929l2.536-0.432
	C46.3,22.706,48.621,37.312,37.167,53.914"/>
<linearGradient id="SVGID_3_" gradientUnits="userSpaceOnUse" x1="77.3452" y1="87.9619" x2="164.1543" y2="87.9619">
	<stop  offset="0.0102" style="stop-color:#3EC7F3"/>
	<stop  offset="0.2954" style="stop-color:#469CD4"/>
	<stop  offset="0.9874" style="stop-color:#58388B"/>
</linearGradient>
<path fill="url(#SVGID_3_)" d="M84.559,163.889c-20.101-34.84-9.225-64.979-7.167-69.986c0.453-1.104,0.904-2.208,1.318-3.324
	c16.037-43.178-5.984-75.093-5.984-75.093l17.315-3.45l32.044,8.916l25.076,23.126l10.588,19.783l1.671,28.699l-5.016,25.076
	l-19.225,27.026l-31.207,17.275L84.559,163.889z"/>
<path fill="#22313F" d="M83.753,15.06c40.298,0,73.084,32.786,73.084,73.083c0,40.299-32.786,73.084-73.084,73.084
	c-40.299,0-73.084-32.785-73.084-73.084C10.669,47.846,43.455,15.06,83.753,15.06 M83.753,8.199
	c-44.082,0-79.945,35.863-79.945,79.944c0,44.083,35.864,79.946,79.945,79.946c44.082,0,79.946-35.863,79.946-79.946
	C163.699,44.063,127.835,8.199,83.753,8.199"/>
<path fill="#3EC7F3" d="M51.985,83.992c0,2.293-1.859,4.152-4.152,4.152c-2.293,0-4.153-1.859-4.153-4.152
	c0-2.293,1.859-4.153,4.153-4.153C50.126,79.839,51.985,81.699,51.985,83.992"/>
<path fill="#3EC7F3" d="M33.974,81.419c0,2.293-1.859,4.152-4.153,4.152c-2.293,0-4.153-1.859-4.153-4.152
	c0-2.294,1.859-4.154,4.153-4.154C32.115,77.265,33.974,79.125,33.974,81.419"/>
<path fill="#3EC7F3" d="M39.549,52.258c0,2.293-1.859,4.152-4.153,4.152s-4.153-1.859-4.153-4.152s1.859-4.153,4.153-4.153
	S39.549,49.964,39.549,52.258"/>
<path fill="#3EC7F3" d="M58.847,64.265c0,2.294-1.86,4.153-4.153,4.153s-4.153-1.859-4.153-4.153c0-2.293,1.86-4.153,4.153-4.153
	S58.847,61.972,58.847,64.265"/>
<path fill="#3EC7F3" d="M70.855,85.277c0,2.294-1.859,4.153-4.154,4.153c-2.293,0-4.153-1.859-4.153-4.153
	c0-2.292,1.86-4.152,4.153-4.152C68.996,81.125,70.855,82.985,70.855,85.277"/>
<g>
	<path fill="#FFFFFF" d="M553,140.574h-2.484v-2.638h-0.061c-1.15,2-2.928,2.999-5.332,2.999c-1.951,0-3.51-0.693-4.676-2.082
		c-1.166-1.39-1.75-3.281-1.75-5.674c0-2.567,0.646-4.623,1.939-6.169c1.291-1.545,3.016-2.319,5.168-2.319
		c2.131,0,3.682,0.839,4.65,2.518h0.061v-9.607H553V140.574z M550.516,133.558v-2.288c0-1.253-0.414-2.314-1.24-3.183
		c-0.83-0.868-1.881-1.304-3.152-1.304c-1.516,0-2.709,0.557-3.576,1.668c-0.869,1.111-1.305,2.646-1.305,4.605
		c0,1.787,0.418,3.2,1.252,4.236c0.832,1.035,1.951,1.552,3.355,1.552c1.383,0,2.508-0.499,3.371-1.499
		C550.086,136.346,550.516,135.082,550.516,133.558z"/>
	<path fill="#FFFFFF" d="M570.23,125.058l-6.184,15.517h-2.439l-5.879-15.517h2.729l3.941,11.272
		c0.289,0.828,0.473,1.552,0.543,2.168h0.061c0.102-0.779,0.262-1.479,0.484-2.106l4.123-11.334H570.23z"/>
	<path fill="#FFFFFF" d="M585.777,140.574h-2.484v-8.852c0-3.292-1.203-4.939-3.607-4.939c-1.242,0-2.27,0.468-3.084,1.402
		c-0.813,0.934-1.219,2.113-1.219,3.537v8.852h-2.486v-15.517h2.486v2.575h0.061c1.172-1.961,2.869-2.941,5.092-2.941
		c1.697,0,2.996,0.549,3.893,1.646c0.898,1.096,1.35,2.68,1.35,4.75V140.574z"/>
	<path fill="#FFFFFF" d="M598.398,132.905h-8.271v-1.954h8.271V132.905z"/>
	<path fill="#FFFFFF" d="M605.414,138.33h-0.059v9.38h-2.486v-22.652h2.486v2.727h0.059c1.225-2.06,3.012-3.093,5.365-3.093
		c2,0,3.561,0.696,4.684,2.085c1.121,1.39,1.68,3.25,1.68,5.584c0,2.597-0.631,4.674-1.895,6.236
		c-1.262,1.561-2.988,2.339-5.18,2.339C608.057,140.936,606.506,140.068,605.414,138.33z M605.355,132.073v2.165
		c0,1.284,0.416,2.372,1.25,3.266c0.832,0.895,1.891,1.341,3.174,1.341c1.506,0,2.684-0.576,3.539-1.727
		c0.854-1.151,1.281-2.754,1.281-4.804c0-1.728-0.4-3.081-1.199-4.062c-0.797-0.979-1.877-1.47-3.24-1.47
		c-1.445,0-2.609,0.503-3.486,1.509C605.793,129.296,605.355,130.557,605.355,132.073z"/>
	<path fill="#FFFFFF" d="M629.207,127.571c-0.436-0.332-1.063-0.499-1.879-0.499c-1.063,0-1.947,0.499-2.66,1.5
		c-0.713,1-1.068,2.363-1.068,4.09v7.912h-2.486v-15.517h2.486v3.195h0.061c0.354-1.091,0.895-1.94,1.621-2.554
		c0.729-0.608,1.541-0.915,2.439-0.915c0.646,0,1.143,0.071,1.486,0.212V127.571z"/>
	<path fill="#FFFFFF" d="M637.98,140.936c-2.295,0-4.125-0.723-5.494-2.173s-2.055-3.373-2.055-5.765
		c0-2.608,0.713-4.643,2.139-6.108c1.424-1.465,3.348-2.198,5.773-2.198c2.313,0,4.119,0.713,5.416,2.139
		c1.299,1.423,1.947,3.399,1.947,5.925c0,2.475-0.699,4.456-2.098,5.945C642.209,140.192,640.334,140.936,637.98,140.936z
		 M638.16,126.783c-1.596,0-2.857,0.545-3.787,1.63c-0.93,1.087-1.393,2.585-1.393,4.492c0,1.839,0.469,3.287,1.408,4.35
		c0.939,1.06,2.197,1.59,3.771,1.59c1.607,0,2.844-0.519,3.705-1.56c0.865-1.04,1.297-2.521,1.297-4.439
		c0-1.939-0.432-3.435-1.297-4.485C641.004,127.31,639.768,126.783,638.16,126.783z"/>
	<path fill="#FFFFFF" d="M652.162,139.922c0,2.545-0.512,4.508-1.537,5.886c-1.025,1.381-2.492,2.069-4.402,2.069
		c-0.707,0-1.395-0.161-2.061-0.484v-2.319c0.748,0.456,1.455,0.684,2.121,0.684c2.264,0,3.396-1.809,3.396-5.427v-15.272h2.482
		V139.922z M650.951,121.117c-0.445,0-0.824-0.152-1.137-0.455s-0.469-0.688-0.469-1.15c0-0.467,0.156-0.852,0.469-1.161
		c0.313-0.308,0.691-0.461,1.137-0.461c0.455,0,0.84,0.153,1.16,0.461c0.318,0.31,0.477,0.694,0.477,1.161
		c0,0.442-0.158,0.822-0.477,1.136C651.791,120.961,651.406,121.117,650.951,121.117z"/>
	<path fill="#FFFFFF" d="M669.666,133.436h-10.957c0.041,1.729,0.504,3.062,1.395,4.001c0.889,0.939,2.109,1.408,3.668,1.408
		c1.746,0,3.352-0.576,4.816-1.727v2.333c-1.363,0.991-3.166,1.484-5.41,1.484c-2.191,0-3.912-0.704-5.166-2.111
		c-1.252-1.409-1.879-3.393-1.879-5.948c0-2.415,0.684-4.383,2.053-5.903s3.068-2.281,5.1-2.281s3.602,0.658,4.713,1.972
		c1.111,1.313,1.668,3.137,1.668,5.471V133.436z M667.119,131.331c-0.01-1.438-0.355-2.552-1.037-3.35
		c-0.684-0.798-1.629-1.198-2.842-1.198c-1.174,0-2.166,0.42-2.986,1.259c-0.818,0.839-1.322,1.936-1.514,3.289H667.119z"/>
	<path fill="#FFFFFF" d="M683.998,139.86c-1.189,0.717-2.604,1.075-4.24,1.075c-2.213,0-4-0.719-5.357-2.158
		c-1.359-1.439-2.039-3.307-2.039-5.598c0-2.557,0.732-4.609,2.197-6.16c1.465-1.553,3.42-2.328,5.865-2.328
		c1.363,0,2.564,0.255,3.605,0.761v2.544c-1.15-0.808-2.385-1.213-3.697-1.213c-1.586,0-2.885,0.568-3.902,1.704
		c-1.016,1.138-1.521,2.63-1.521,4.479c0,1.818,0.477,3.253,1.432,4.304s2.234,1.575,3.842,1.575c1.354,0,2.627-0.448,3.816-1.348
		V139.86z"/>
	<path fill="#FFFFFF" d="M694.955,140.421c-0.584,0.324-1.359,0.485-2.316,0.485c-2.719,0-4.078-1.515-4.078-4.545v-9.184h-2.666
		v-2.12h2.666v-3.789l2.486-0.806v4.595h3.908v2.12h-3.908v8.743c0,1.041,0.178,1.784,0.529,2.228
		c0.354,0.444,0.939,0.667,1.758,0.667c0.627,0,1.168-0.172,1.621-0.515V140.421z"/>
	<path fill="#FFFFFF" d="M699.139,140.906c-0.467,0-0.861-0.166-1.189-0.5c-0.33-0.333-0.494-0.732-0.494-1.197
		c0-0.464,0.164-0.865,0.494-1.205c0.328-0.338,0.723-0.507,1.189-0.507c0.473,0,0.879,0.169,1.211,0.507
		c0.334,0.34,0.5,0.741,0.5,1.205c0,0.465-0.166,0.864-0.5,1.197C700.018,140.74,699.611,140.906,699.139,140.906z"/>
	<path fill="#FFFFFF" d="M717.883,140.574h-2.486v-8.852c0-3.292-1.203-4.939-3.607-4.939c-1.242,0-2.271,0.468-3.082,1.402
		c-0.813,0.934-1.221,2.113-1.221,3.537v8.852H705v-15.517h2.486v2.575h0.061c1.17-1.961,2.869-2.941,5.092-2.941
		c1.697,0,2.996,0.549,3.895,1.646c0.898,1.096,1.35,2.68,1.35,4.75V140.574z"/>
	<path fill="#FFFFFF" d="M735.035,133.436H724.08c0.039,1.729,0.504,3.062,1.393,4.001s2.113,1.408,3.668,1.408
		c1.748,0,3.354-0.576,4.818-1.727v2.333c-1.365,0.991-3.168,1.484-5.408,1.484c-2.193,0-3.916-0.704-5.17-2.111
		c-1.252-1.409-1.877-3.393-1.877-5.948c0-2.415,0.684-4.383,2.053-5.903s3.068-2.281,5.098-2.281c2.033,0,3.604,0.658,4.713,1.972
		c1.111,1.313,1.668,3.137,1.668,5.471V133.436z M732.488,131.331c-0.01-1.438-0.355-2.552-1.035-3.35
		c-0.684-0.798-1.631-1.198-2.842-1.198c-1.174,0-2.168,0.42-2.986,1.259s-1.324,1.936-1.516,3.289H732.488z"/>
	<path fill="#FFFFFF" d="M745.99,140.421c-0.586,0.324-1.359,0.485-2.316,0.485c-2.721,0-4.078-1.515-4.078-4.545v-9.184h-2.666
		v-2.12h2.666v-3.789l2.486-0.806v4.595h3.908v2.12h-3.908v8.743c0,1.041,0.176,1.784,0.529,2.228
		c0.352,0.444,0.938,0.667,1.758,0.667c0.627,0,1.168-0.172,1.621-0.515V140.421z"/>
</g>
</svg>
